<svg xmlns="http://www.w3.org/2000/svg" viewBox="132.638 382.986 331.088 57.072"><g fill="#106B30"><path d="M171.333 390.622c.582.711.906 1.681.906 2.524 0 2.328-2.006 4.141-4.4 4.141a4.623 4.623 0 0 1-3.365-1.488c-2.459-2.589-5.63-4.141-8.865-4.141-7.829 0-13.524 6.018-13.524 14.171S147.78 420 155.609 420c3.235 0 6.471-1.424 8.865-4.077.906-.97 2.199-1.487 3.494-1.487 2.329 0 4.206 1.812 4.206 4.012 0 .906-.259 1.812-.906 2.523-3.235 3.948-8.218 7.184-15.659 7.184-12.942 0-22.971-9.06-22.971-22.324 0-13.266 10.03-22.324 22.971-22.324 7.441-.002 12.424 3.168 15.724 7.115zM186.503 387.84c0 2.717-2.2 4.918-4.918 4.918-2.653 0-4.918-2.201-4.918-4.918s2.265-4.854 4.918-4.854c2.718 0 4.918 2.137 4.918 4.854zm-4.918 39.924a4.059 4.059 0 0 1-4.076-4.076v-23.941c0-2.199 1.812-4.012 4.206-4.012 2.2 0 4.012 1.812 4.012 4.012v23.941c-.001 2.264-1.813 4.076-4.142 4.076zM203.706 428.152c-5.759 0-8.865-2.977-8.865-8.541v-16.307h-2.006c-1.941 0-3.559-1.617-3.559-3.688 0-1.876 1.617-3.494 3.559-3.494h2.006v-4.853c0-2.266 1.812-4.078 4.206-4.078a4.06 4.06 0 0 1 4.077 4.078v4.853h3.236c1.876 0 3.494 1.617 3.494 3.623 0 1.942-1.618 3.56-3.494 3.56h-3.236v14.104c0 2.46 1.553 3.43 2.847 3.43h.712c2.329 0 3.623 1.554 3.623 3.561 0 2.069-1.23 3.752-6.6 3.752zM242.792 401.234l-12.619 31.254c-2.199 5.436-6.146 7.57-10.741 7.57-2.847 0-5.047-1.424-5.047-3.688 0-1.94 1.553-3.623 3.883-3.623.323 0 .711 0 1.035-.064 1.359-.259 2.524-.905 3.106-2.2l1.164-2.653-10.677-26.658a3.38 3.38 0 0 1-.259-1.358c0-2.006 1.618-4.078 4.141-4.078 1.618 0 3.171 1.037 3.818 2.718l7.247 19.413 7.247-19.413c.583-1.617 2.201-2.718 3.948-2.718 2.458 0 4.012 2.007 4.012 4.013.001.515-.064 1.032-.258 1.485zM290.119 427.764a4.059 4.059 0 0 1-4.076-4.076v-16.047c0-2.912-1.295-4.982-4.659-4.982-2.912 0-5.306 1.941-6.471 3.623v17.406c0 2.265-1.811 4.076-4.205 4.076a4.06 4.06 0 0 1-4.077-4.076v-16.047c0-2.912-1.293-4.982-4.659-4.982-2.846 0-5.24 1.941-6.469 3.689v17.34c0 2.265-1.812 4.076-4.141 4.076a4.059 4.059 0 0 1-4.076-4.076v-23.941c0-2.199 1.811-4.012 4.205-4.012 2.199 0 4.012 1.812 4.012 4.012v.454c1.295-1.876 5.435-4.854 10.224-4.854 4.594 0 7.506 2.135 8.669 5.695 1.812-2.848 5.954-5.695 10.742-5.695 5.759 0 9.189 3.043 9.189 9.448v18.895c-.001 2.262-1.813 4.074-4.208 4.074zM324.576 427.764h-.646c-.646 0-3.559-.518-3.559-3.623-2.135 2.524-5.824 4.013-9.9 4.013-4.98 0-10.871-3.365-10.871-10.354 0-7.311 5.891-10.093 10.871-10.093 4.143 0 7.83 1.358 9.9 3.817v-4.205c0-3.172-2.717-5.241-6.857-5.241-2.461 0-4.854.582-6.988 2.006-.453.259-.971.452-1.488.452-1.488 0-3.105-1.229-3.105-3.171 0-.582.193-1.164.451-1.618 1.943-3.105 8.93-4.4 12.553-4.4 7.119 0 13.654 2.848 13.654 11.842v16.5c-.002 2.263-1.814 4.075-4.015 4.075zm-4.205-11.776c-1.359-1.813-3.947-2.719-6.598-2.719-3.238 0-5.891 1.683-5.891 4.725 0 2.912 2.652 4.594 5.891 4.594 2.65 0 5.24-.906 6.598-2.717v-3.883zM353.619 428.152c-3.688 0-7.117-1.555-9.641-4.789v12.294c0 2.199-1.812 4.012-4.141 4.012-2.266 0-4.076-1.812-4.076-4.012v-35.913c0-2.199 1.811-4.012 4.205-4.012 2.199 0 4.012 1.812 4.012 4.012v.324c2.395-3.041 5.824-4.725 9.641-4.725 8.023 0 13.848 5.954 13.848 16.371-.001 10.421-5.825 16.438-13.848 16.438zm-2.586-25.494c-2.654 0-5.695 1.554-7.055 3.559v11.064c1.359 1.941 4.4 3.559 7.055 3.559 4.723 0 7.893-3.689 7.893-9.123-.001-5.369-3.171-9.059-7.893-9.059zM390.833 428.152c-3.686 0-7.117-1.555-9.641-4.789v12.294c0 2.199-1.812 4.012-4.141 4.012-2.266 0-4.076-1.812-4.076-4.012v-35.913c0-2.199 1.811-4.012 4.205-4.012 2.199 0 4.012 1.812 4.012 4.012v.324c2.395-3.041 5.824-4.725 9.641-4.725 8.023 0 13.848 5.954 13.848 16.371 0 10.421-5.822 16.438-13.848 16.438zm-2.587-25.494c-2.652 0-5.695 1.554-7.053 3.559v11.064c1.359 1.941 4.4 3.559 7.053 3.559 4.723 0 7.895-3.689 7.895-9.123-.001-5.369-3.173-9.059-7.895-9.059zM436.255 414.37h-19.283c.52 3.946 3.689 7.247 8.994 7.247 1.748 0 4.143-.519 6.084-1.553.518-.26 1.1-.389 1.617-.389 1.746 0 3.494 1.36 3.494 3.3 0 3.689-7.961 5.178-12.102 5.178-9.512 0-16.693-6.406-16.693-16.437 0-9.059 6.664-16.371 16.176-16.371 7.053 0 12.424 4.077 14.623 10.547.453 1.424.906 3.172.906 4.725.003 2.006-1.681 3.753-3.816 3.753zm-11.711-12.489c-5.113 0-7.312 3.818-7.701 6.924h15.4c-.193-2.976-2.265-6.924-7.699-6.924zM459.779 403.436c-2.523.322-4.918 1.357-6.406 3.299v16.953c0 2.265-1.812 4.076-4.012 4.076h-.129a4.058 4.058 0 0 1-4.076-4.076v-23.941c0-2.199 1.811-4.012 4.205-4.012 2.197 0 4.012 1.812 4.012 4.012v.646c1.553-2.069 3.623-4.529 6.729-4.529 2.395 0 3.625 1.488 3.625 3.365-.001 2.459-1.683 3.88-3.948 4.207z"/></g></svg>
